<?xml version="1.0" encoding="UTF-8" standalone="no"?>
<!-- Created with Inkscape (http://www.inkscape.org/) -->

<svg
   xmlns:dc="http://purl.org/dc/elements/1.1/"
   xmlns:cc="http://creativecommons.org/ns#"
   xmlns:rdf="http://www.w3.org/1999/02/22-rdf-syntax-ns#"
   xmlns:svg="http://www.w3.org/2000/svg"
   xmlns="http://www.w3.org/2000/svg"
   xmlns:sodipodi="http://sodipodi.sourceforge.net/DTD/sodipodi-0.dtd"
   xmlns:inkscape="http://www.inkscape.org/namespaces/inkscape"
   width="744.09448819"
   height="1052.3622047"
   id="svg5585"
   version="1.1"
   inkscape:version="0.48.2 r9819"
   sodipodi:docname="bullet_point_icons.svg">
  <defs
     id="defs5587" />
  <sodipodi:namedview
     id="base"
     pagecolor="#ffffff"
     bordercolor="#666666"
     borderopacity="1.0"
     inkscape:pageopacity="0.0"
     inkscape:pageshadow="2"
     inkscape:zoom="4"
     inkscape:cx="56.523144"
     inkscape:cy="927.48432"
     inkscape:document-units="px"
     inkscape:current-layer="layer1"
     showgrid="false"
     inkscape:window-width="843"
     inkscape:window-height="637"
     inkscape:window-x="376"
     inkscape:window-y="58"
     inkscape:window-maximized="0"
     showguides="true"
     inkscape:guide-bbox="true">
    <inkscape:grid
       type="xygrid"
       id="grid5612" />
  </sodipodi:namedview>
  <metadata
     id="metadata5590">
    <rdf:RDF>
      <cc:Work
         rdf:about="">
        <dc:format>image/svg+xml</dc:format>
        <dc:type
           rdf:resource="http://purl.org/dc/dcmitype/StillImage" />
        <dc:title></dc:title>
      </cc:Work>
    </rdf:RDF>
  </metadata>
  <g
     inkscape:label="Layer 1"
     inkscape:groupmode="layer"
     id="layer1">
    <rect
       style="color:#000000;fill:#333333;fill-opacity:1;fill-rule:nonzero;stroke:none;stroke-width:2;marker:none;visibility:visible;display:inline;overflow:visible;enable-background:accumulate"
       id="rect4025"
       width="60"
       height="59.999992"
       x="0"
       y="12.362183"
       rx="5"
       ry="5" />
    <path
       inkscape:connector-curvature="0"
       style="color:#000000;fill:#666666;fill-opacity:1;fill-rule:nonzero;stroke:none;stroke-width:2;marker:none;visibility:visible;display:inline;overflow:visible;enable-background:accumulate"
       d="m 25,23.362211 c -1.107999,0 -2,0.892 -2,2 l 0,3 3,0 0,-2 20,0 0,30 -20,0 0,-7 -3,0 0,10 c 0,1.108 0.892001,2 2,2 l 22,0 c 1.108,0 2,-0.892 2,-2 l 0,-34 c 0,-1.108 -0.892,-2 -2,-2 l -22,0 z m -14,6 0,4 4,0 0,-4 -4,0 z m 5,0 0,4 4,0 0,-4 -4,0 z m 5,0 0,4 4,0 0,-4 -4,0 z m 5,0 0,4 4,0 0,-4 -4,0 z m 9,4 0,2 -4,0 0,7 4,0 0,2 7,-5.5 -7,-5.5 z m -24,1 0,4 4,0 0,-4 -4,0 z m 5,0 0,4 4,0 0,-4 -4,0 z m 5,0 0,4 4,0 0,-4 -4,0 z m 5,0 0,4 4,0 0,-4 -4,0 z m -15,5 0,4 4,0 0,-4 -4,0 z m 5,0 0,4 4,0 0,-4 -4,0 z m 5,0 0,4 4,0 0,-4 -4,0 z m 5,0 0,4 4,0 0,-4 -4,0 z m -15,5 0,4 4,0 0,-4 -4,0 z m 5,0 0,4 4,0 0,-4 -4,0 z m 5,0 0,4 4,0 0,-4 -4,0 z m 5,0 0,4 4,0 0,-4 -4,0 z m 1,7 0,4 18,0 0,-4 -18,0 z m 7,7 4,0 0,1 -4,0 0,-1 z"
       id="rect4027" />
    <rect
       style="color:#000000;fill:#333333;fill-opacity:1;fill-rule:nonzero;stroke:none;stroke-width:2;marker:none;visibility:visible;display:inline;overflow:visible;enable-background:accumulate"
       id="rect4045"
       width="1"
       height="22.999996"
       x="30"
       y="28.362185" />
    <rect
       style="color:#000000;fill:#333333;fill-opacity:1;fill-rule:nonzero;stroke:none;stroke-width:2;marker:none;visibility:visible;display:inline;overflow:visible;enable-background:accumulate"
       id="rect4047"
       width="1.0000026"
       height="19"
       x="28.362185"
       y="-30"
       transform="matrix(0,1,-1,0,0,0)" />
    <rect
       y="12.362183"
       x="70"
       height="59.999992"
       width="60"
       id="rect4134"
       style="color:#000000;fill:#333333;fill-opacity:1;fill-rule:nonzero;stroke:none;stroke-width:2;marker:none;visibility:visible;display:inline;overflow:visible;enable-background:accumulate"
       rx="5"
       ry="5" />
    <path
       inkscape:connector-curvature="0"
       style="color:#000000;fill:#666666;fill-opacity:1;fill-rule:nonzero;stroke:none;stroke-width:2;marker:none;visibility:visible;display:inline;overflow:visible;enable-background:accumulate"
       d="m 86,27.362211 0,3.3437 -1.78125,1.1563 -3,-1.7188 -2,3.4375 2.78125,1.5938 0,2.375 -2.78125,1.5937 2,3.4375 3,-1.7187 1.78125,1.1875 0,3.3125 4,0 0,-3.3125 1.78125,-1.1875 3,1.7187 2,-3.4375 -2.78125,-1.5937 0,-2.375 2.78125,-1.5938 -2,-3.4375 -3,1.7188 -1.78125,-1.1875 0,-3.3125 -4,0 z m 1.875,7 c 0.38426,-0.027 0.76628,0.074 1.125,0.2812 0.95659,0.5523 1.27104,1.7622 0.71875,2.7188 -0.55228,0.9566 -1.76216,1.271 -2.71875,0.7187 -0.95658,-0.5522 -1.27103,-1.7621 -0.71875,-2.7187 0.34518,-0.5979 0.95331,-0.9548 1.59375,-1 z"
       id="path4212" />
    <path
       inkscape:connector-curvature="0"
       style="color:#000000;fill:#666666;fill-opacity:1;fill-rule:nonzero;stroke:none;stroke-width:2;marker:none;visibility:visible;display:inline;overflow:visible;enable-background:accumulate"
       d="m 106,34.362211 0,3.8125 -2.40625,0.9375 -2.65625,-2.6563 -2.84375,2.8438 2.65625,2.6562 -0.96875,2.4063 -3.78125,0 0,4 3.78125,0 0.96875,2.4062 -2.65625,2.6563 2.84375,2.8437 2.65625,-2.6562 2.40625,0.9375 0,3.8125 4,0 0,-3.8125 2.40625,-0.9375 2.65625,2.6562 2.84375,-2.8437 -2.65625,-2.6563 0.96875,-2.4062 3.78125,0 0,-4 -3.78125,0 -0.96875,-2.4063 2.65625,-2.6562 -2.84375,-2.8438 -2.65625,2.6563 -2.40625,-0.9375 0,-3.8125 -4,0 z m 1.875,10 c 0.38426,-0.027 0.76628,0.074 1.125,0.2812 0.95659,0.5523 1.27104,1.7622 0.71875,2.7188 -0.55228,0.9566 -1.76216,1.271 -2.71875,0.7187 -0.95658,-0.5522 -1.27103,-1.7621 -0.71875,-2.7187 0.34518,-0.5979 0.95331,-0.9548 1.59375,-1 z"
       id="rect4256" />
    <path
       style="color:#000000;fill:#333333;fill-opacity:1;fill-rule:nonzero;stroke:none;stroke-width:4.4000001;marker:none;visibility:visible;display:inline;overflow:visible;enable-background:accumulate"
       d="M 32 92.375 C 25.372583 92.375 20 97.747583 20 104.375 C 20 111.00242 25.372583 116.375 32 116.375 C 38.627417 116.375 44 111.00242 44 104.375 C 44 97.747583 38.627417 92.375 32 92.375 z M 36 99.375 C 36.554 99.375 37 99.821 37 100.375 L 37 108.375 C 37 108.929 36.554 109.375 36 109.375 C 35.446 109.375 35 108.929 35 108.375 L 35 100.375 C 35 99.821 35.446 99.375 36 99.375 z M 30 101.375 L 34 104.375 L 30 107.375 L 30 105.375 L 25 105.375 L 25 103.375 L 30 103.375 L 30 101.375 z "
       id="path5635"
       inkscape:export-filename="/Users/saman/Desktop/mailchimp/auto_completion.png"
       inkscape:export-xdpi="90"
       inkscape:export-ydpi="90" />
    <path
       style="color:#000000;fill:#333333;fill-opacity:1;fill-rule:nonzero;stroke:none;stroke-width:4.4000001;marker:none;visibility:visible;display:inline;overflow:visible;enable-background:accumulate"
       d="M 32 122.375 C 25.372583 122.375 20 127.74758 20 134.375 C 20 141.00242 25.372583 146.375 32 146.375 C 38.627417 146.375 44 141.00242 44 134.375 C 44 127.74758 38.627417 122.375 32 122.375 z M 29.90625 128.375 L 30.90625 128.375 L 30.90625 129.375 L 29.90625 129.375 C 28.90625 129.375 28.90625 129.375 28.90625 130.375 L 28.90625 131.375 C 28.90625 133.2183 28.1844 133.3098 26.90625 133.875 C 28.1844 134.4401 28.90625 134.5317 28.90625 136.375 L 28.90625 137.375 C 28.90625 138.375 28.90625 138.375 29.90625 138.375 L 30.90625 138.375 L 30.90625 139.375 L 29.90625 139.375 C 27.90625 139.375 26.90625 138.375 26.90625 137.375 L 26.90625 136.375 C 26.90625 135.375 25.90625 134.375 25 134.375 L 25 133.375 C 25.90625 133.375 26.90625 132.375 26.90625 131.375 L 26.90625 130.375 C 26.90625 129.375 27 128.375 29.90625 128.375 z M 33 128.375 L 34 128.375 C 37 128.375 37 129.375 37 130.375 L 37 131.375 C 37 132.375 38 133.375 38.90625 133.375 L 38.90625 134.375 C 38 134.375 37 135.375 37 136.375 L 37 137.375 C 37 138.375 36 139.375 34 139.375 L 33 139.375 L 33 138.375 L 34 138.375 C 35 138.375 35 138.375 35 137.375 L 35 136.375 C 35 134.5317 35.72185 134.4401 37 133.875 C 35.72185 133.3098 35 133.2183 35 131.375 L 35 130.375 C 35 129.375 35 129.375 34 129.375 L 33 129.375 L 33 128.375 z "
       id="path5695"
       inkscape:export-filename="/Users/saman/Desktop/mailchimp/default.png"
       inkscape:export-xdpi="90"
       inkscape:export-ydpi="90" />
  </g>
</svg>
